HIERARCHY
ROOT hip
{
  OFFSET 0 0 0
  CHANNELS 6 Xposition Yposition Zposition Zrotation Yrotation Xrotation
  JOINT abdomen
  {
    OFFSET 0 20.6881 -0.73152
    CHANNELS 3 Zrotation Xrotation Yrotation
    JOINT chest
    {
      OFFSET 0 11.7043 -0.48768
      CHANNELS 3 Zrotation Xrotation Yrotation
      JOINT neck
      {
        OFFSET 0 22.1894 -2.19456
        CHANNELS 3 Zrotation Xrotation Yrotation
        JOINT head
        {
          OFFSET -0.24384 7.07133 1.2192
          CHANNELS 3 Zrotation Xrotation Yrotation
          JOINT leftEye
          {
            OFFSET 4.14528 8.04674 8.04672
            CHANNELS 3 Zrotation Xrotation Yrotation
            End Site
            {
              OFFSET 1 0 0
            }
          }
          JOINT rightEye
          {
            OFFSET -3.6576 8.04674 8.04672
            CHANNELS 3 Zrotation Xrotation Yrotation
            End Site
            {
              OFFSET 1 0 0
            }
          }
        }
      }
      JOINT rCollar
      {
        OFFSET -2.68224 19.2634 -4.8768
        CHANNELS 3 Zrotation Xrotation Yrotation
        JOINT rShldr
        {
          OFFSET -8.77824 -1.95073 1.46304
          CHANNELS 3 Zrotation Xrotation Yrotation
          JOINT rForeArm
          {
            OFFSET -28.1742 -1.7115 0.48768
            CHANNELS 3 Zrotation Xrotation Yrotation
            JOINT rHand
            {
              OFFSET -22.5879 0.773209 7.07136
              CHANNELS 3 Zrotation Xrotation Yrotation
              JOINT rThumb1
              {
                OFFSET -1.2192 -0.487915 3.41376
                CHANNELS 3 Zrotation Xrotation Yrotation
                JOINT rThumb2
                {
                  OFFSET -3.37035 -0.52449 3.41376
                  CHANNELS 3 Zrotation Xrotation Yrotation
                  End Site
                  {
                    OFFSET -1.78271 -1.18214 1.43049
                  }
                }
              }
              JOINT rIndex1
              {
                OFFSET -7.75947 0.938293 5.60832
                CHANNELS 3 Zrotation Xrotation Yrotation
                JOINT rIndex2
                {
                  OFFSET -2.54057 -0.884171 1.56538
                  CHANNELS 3 Zrotation Xrotation Yrotation
                  End Site
                  {
                    OFFSET -1.62519 -0.234802 1.16502
                  }
                }
              }
              JOINT rMid1
              {
                OFFSET -8.24714 1.18213 3.41376
                CHANNELS 3 Zrotation Xrotation Yrotation
                JOINT rMid2
                {
                  OFFSET -3.10165 -0.590103 1.0647
                  CHANNELS 3 Zrotation Xrotation Yrotation
                  End Site
                  {
                    OFFSET -2.48547 -0.328903 0.83742
                  }
                }
              }
              JOINT rRing1
              {
                OFFSET -8.82822 0.546677 1.51678
                CHANNELS 3 Zrotation Xrotation Yrotation
                JOINT rRing2
                {
                  OFFSET -2.60934 -0.819778 -0.0198488
                  CHANNELS 3 Zrotation Xrotation Yrotation
                  End Site
                  {
                    OFFSET -2.33842 -0.294052 0.168128
                  }
                }
              }
              JOINT rPinky1
              {
                OFFSET -8.27202 -0.0477905 -0.4584
                CHANNELS 3 Zrotation Xrotation Yrotation
                JOINT rPinky2
                {
                  OFFSET -1.82734 -0.647385 -0.700984
                  CHANNELS 3 Zrotation Xrotation Yrotation
                  End Site
                  {
                    OFFSET -1.69225 -0.51767 -0.607171
                  }
                }
              }
            }
          }
        }
      }
      JOINT lCollar
      {
        OFFSET 2.68224 19.2634 -4.8768
        CHANNELS 3 Zrotation Xrotation Yrotation
        JOINT lShldr
        {
          OFFSET 8.77824 -1.95073 1.46304
          CHANNELS 3 Zrotation Xrotation Yrotation
          JOINT lForeArm
          {
            OFFSET 28.1742 -1.7115 0.48768
            CHANNELS 3 Zrotation Xrotation Yrotation
            JOINT lHand
            {
              OFFSET 22.5879 0.773209 7.07136
              CHANNELS 3 Zrotation Xrotation Yrotation
              JOINT lThumb1
              {
                OFFSET 1.2192 -0.487915 3.41376
                CHANNELS 3 Zrotation Xrotation Yrotation
                JOINT lThumb2
                {
                  OFFSET 3.37035 -0.52449 3.41376
                  CHANNELS 3 Zrotation Xrotation Yrotation
                  End Site
                  {
                    OFFSET 1.78271 -1.18214 1.43049
                  }
                }
              }
              JOINT lIndex1
              {
                OFFSET 7.75947 0.938293 5.60832
                CHANNELS 3 Zrotation Xrotation Yrotation
                JOINT lIndex2
                {
                  OFFSET 2.54057 -0.884171 1.56538
                  CHANNELS 3 Zrotation Xrotation Yrotation
                  End Site
                  {
                    OFFSET 1.62519 -0.234802 1.16502
                  }
                }
              }
              JOINT lMid1
              {
                OFFSET 8.24714 1.18213 3.41376
                CHANNELS 3 Zrotation Xrotation Yrotation
                JOINT lMid2
                {
                  OFFSET 3.10165 -0.590103 1.0647
                  CHANNELS 3 Zrotation Xrotation Yrotation
                  End Site
                  {
                    OFFSET 2.48547 -0.328903 0.83742
                  }
                }
              }
              JOINT lRing1
              {
                OFFSET 8.82822 0.546677 1.51678
                CHANNELS 3 Zrotation Xrotation Yrotation
                JOINT lRing2
                {
                  OFFSET 2.60934 -0.819778 -0.0198488
                  CHANNELS 3 Zrotation Xrotation Yrotation
                  End Site
                  {
                    OFFSET 2.33842 -0.294052 0.168128
                  }
                }
              }
              JOINT lPinky1
              {
                OFFSET 8.27202 -0.0477905 -0.4584
                CHANNELS 3 Zrotation Xrotation Yrotation
                JOINT lPinky2
                {
                  OFFSET 1.82734 -0.647385 -0.700984
                  CHANNELS 3 Zrotation Xrotation Yrotation
                  End Site
                  {
                    OFFSET 1.69225 -0.51767 -0.607171
                  }
                }
              }
            }
          }
        }
      }
    }
  }
  JOINT rButtock
  {
    OFFSET -8.77824 4.35084 1.2192
    CHANNELS 3 Zrotation Xrotation Yrotation
    JOINT rThigh
    {
      OFFSET 0 -1.70687 -2.19456
      CHANNELS 3 Zrotation Xrotation Yrotation
      JOINT rShin
      {
        OFFSET 0 -36.8199 0.73152
        CHANNELS 3 Zrotation Xrotation Yrotation
        JOINT rFoot
        {
          OFFSET 0.73152 -45.1104 -5.12064
          CHANNELS 3 Zrotation Xrotation Yrotation
          End Site
          {
            OFFSET -1.1221 -3.69964 12.103
          }
        }
      }
    }
  }
  JOINT lButtock
  {
    OFFSET 8.77824 4.35084 1.2192
    CHANNELS 3 Zrotation Xrotation Yrotation
    JOINT lThigh
    {
      OFFSET 0 -1.70687 -2.19456
      CHANNELS 3 Zrotation Xrotation Yrotation
      JOINT lShin
      {
        OFFSET 0 -36.8199 0.73152
        CHANNELS 3 Zrotation Xrotation Yrotation
        JOINT lFoot
        {
          OFFSET -0.73152 -45.1104 -5.12064
          CHANNELS 3 Zrotation Xrotation Yrotation
          End Site
          {
            OFFSET 1.1221 -3.69964 12.103
          }
        }
      }
    }
  }
}
MOTION
Frames:	4
Frame Time:	0.03333
0.704899974152795 59.48609709739685 17.855999956373125 -11.945900113062043 -32.52249897833848 14.316599863591879 4.666950012219707 11.931700149777587 12.884000128580261 -0.7983100022310045 -11.343600371671979 3.5854399297933166 -2.7529999525274347 14.09569959300262 1.8527899845430396 8.092399590894646 -33.798101692635484 6.299139827610144 -0.0 0.0 0.0 -0.0 0.0 0.0 -1.4825499794127088e-13 -4.4441399037938997e-13 5.447919971728746e-13 27.499999626892357 59.60559922621889 48.49730057900115 -28.43479980726781 -37.10840068520635 78.70429712681361 -8.644760404168162 -60.98210091002991 -14.651500260296883 -8.377309689903641e-10 1.6840200552468096e-08 -1.4691399521481925e-09 -1.3673499770843033e-09 2.8866898761134403e-08 -2.5600000369025192e-09 -8.37731962913702e-10 1.6840300739940564e-08 -1.4691600293996193e-09 7.730910121524428 5.474879855648998 0.41731399283890674 -8.37733950760378e-10 1.6840200552468096e-08 -1.4691399521481925e-09 2.90554006136521 0.9651829962377875 0.10290200252939893 -8.377259993736743e-10 1.6840200552468096e-08 -1.4691399521481925e-09 10.278599710243157 0.7318009818271524 0.025912300303053633 -8.37733950760378e-10 1.6840200552468096e-08 -1.469130012914813e-09 2.221669932038622 -0.7334870246959406 -0.20891999872313852 -1.4820999718857943e-13 -4.4441399037938997e-13 5.446660096247624e-13 -62.10479959447241 24.118099761252243 -32.407799611606464 27.49429983402998 -28.151599673711573 -64.28690160031891 0.05894750073465209 6.860700051922021 -0.9689810083031377 -3.43220016786091e-09 1.7622799886002307e-08 -1.008879995739265e-09 -5.934430001021999e-09 3.0483501552964634e-08 -1.7283199738013056e-09 -3.43221010709429e-09 1.7622799886002307e-08 -1.008879995739265e-09 -7.730910121524428 5.474879855648998 -0.41731399283890674 -3.43221010709429e-09 1.7622799886002307e-08 -1.008879995739265e-09 -2.90554006136521 0.9651829962377875 -0.10290200252939893 -3.43221010709429e-09 1.7622799886002307e-08 -1.008879995739265e-09 -10.278599710243157 0.7318009818271524 -0.025912300303053633 -3.43220016786091e-09 1.7622799886002307e-08 -1.0088900343649783e-09 -2.221669932038622 -0.7334870246959406 0.20891999872313852 -2.0321699793705798e-16 0.0 -3.882510030490358e-19 -19.572899151648482 -20.38189920034335 -27.682200045644322 -1.4564799973406857 69.44480091432408 3.5333900463364114 -3.749430210444384 -6.79222014841665 -26.94319919065833 2.0321699793705798e-16 0.0 3.882510030490358e-19 58.73039927654097 -53.34840145586768 63.20120205061037 2.9127900937257674 74.33430111470443 -3.2786299667104597 6.184130114157707 -4.401200158219204 27.770200202910768
0.905499964937917 59.85249876976013 19.381999934557825 -10.536300186306798 -30.380800956527192 13.143399614199945 3.7011898649970534 12.20700031578506 12.933099797202544 -0.8786750218615794 -11.307400369070912 3.5671700275371787 -2.8094900992750826 14.423199479741914 1.0621900385853629 8.318670097718828 -34.43579888939914 4.806819906703697 -0.0 0.0 0.0 -0.0 0.0 0.0 -1.5830500427098536e-13 -4.3061097708633325e-13 9.855969975569589e-13 17.38760061727041 58.61789923072169 61.581900802183746 -28.12440015288929 -39.917500396481685 83.61439717773072 -6.300829872542899 -55.76500093139365 -11.900000388065912 2.8084399217503323e-09 8.794670225376655e-09 -1.3313400351577747e-09 4.889999852292344e-09 1.4651999605226626e-08 -2.161920023908537e-09 2.8084399217503323e-09 8.7946797670407e-09 -1.3313499743911543e-09 7.730910121524428 5.474879855648998 0.41731399283890674 2.8084399217503323e-09 8.794670225376655e-09 -1.3313400351577747e-09 2.90554006136521 0.9651829962377875 0.10290200252939893 2.8084500597683795e-09 8.794670225376655e-09 -1.3313400351577747e-09 10.278599710243157 0.7318009818271524 0.025912300303053633 2.8084399217503323e-09 8.794670225376655e-09 -1.3313299965320612e-09 2.221669932038622 -0.7334870246959406 -0.20891999872313852 -1.5832200239838378e-13 -4.3061097708633325e-13 9.853439547696488e-13 -61.29480063061143 27.215399304556264 -34.200300797006264 27.193100444463465 -27.00259963832264 -62.477598149560876 0.05100869982519486 6.324300110078355 -0.8926279777580047 -3.1701799108772504e-09 1.230390024706793e-08 -1.92943996366764e-09 -5.4849699162109826e-09 2.131740058591598e-08 -3.3230300138356862e-09 -3.1701900488952976e-09 1.230390024706793e-08 -1.9294499029010194e-09 -7.730910121524428 5.474879855648998 -0.41731399283890674 -3.1701900488952976e-09 1.230390024706793e-08 -1.9294499029010194e-09 -2.90554006136521 0.9651829962377875 -0.10290200252939893 -3.1701900488952976e-09 1.230390024706793e-08 -1.9294499029010194e-09 -10.278599710243157 0.7318009818271524 -0.025912300303053633 -3.1701799108772504e-09 1.230390024706793e-08 -1.9294600409190666e-09 -2.221669932038622 -0.7334870246959406 0.20891999872313852 -2.0321699793705798e-16 0.0 -3.882510030490358e-19 -18.054599325573424 -21.595900438516 -22.922599797993865 -1.9273600689105346 72.58709774388015 3.889280041247688 -1.6045499608100995 -2.620900038554568 -27.101200249180945 2.0321699793705798e-16 0.0 3.882510030490358e-19 54.000298615915796 -54.06080043158377 59.64449715354212 2.7530599301260836 73.65630238674312 -3.11571010476838 6.017140099800535 -4.342139939352927 27.351600106795487
1.1162999635416782 60.11649966239929 20.94799984479323 -9.036699710631941 -28.272799672986157 11.775499699874919 2.5600400648419925 12.734200419703543 12.920499805731163 -0.954831951272339 -11.329600191420745 3.5249199714353607 -2.9808200585195634 14.74500042739248 0.3222020078208924 8.591150249372731 -34.92110090540147 3.419420015741698 -0.0 0.0 0.0 -0.0 0.0 0.0 -1.2361500505836873e-13 -3.0606699585343594e-13 6.215339925567558e-13 6.893160099065684 55.3278995603641 75.52629889846588 -27.5260004495153 -42.416301198668755 88.39070065299644 -4.961939906057034 -51.627101577470675 -10.229799716170708 1.0851000008338623e-09 2.7945299646356195e-09 -1.2947700174303071e-09 1.9107299531845958e-09 4.440139812730134e-09 -2.1645700223121987e-09 1.0851000008338623e-09 2.7945299646356195e-09 -1.2947700174303071e-09 7.730910121524428 5.474879855648998 0.41731399283890674 1.0850899622081488e-09 2.794539903868999e-09 -1.2947599788045938e-09 2.90554006136521 0.9651829962377875 0.10290200252939893 1.0851000008338623e-09 2.794539903868999e-09 -1.2947599788045938e-09 10.278599710243157 0.7318009818271524 0.025912300303053633 1.0850899622081488e-09 2.794539903868999e-09 -1.2947500395712143e-09 2.221669932038622 -0.7334870246959406 -0.20891999872313852 -1.2365499494266935e-13 -3.060660009594697e-13 6.212210134744078e-13 -59.99810287706285 30.31090080056128 -36.55249841884818 26.83719977738161 -25.80919995823404 -60.572002691884 0.028573799573004138 4.9476998154112035 -0.696933986692148 -1.2848299889120633e-09 5.2108200175955585e-09 -1.322230032019059e-09 -2.225759918690205e-09 9.062790189885359e-09 -2.2756900551418275e-09 -1.2848299889120633e-09 5.210789802326084e-09 -1.322230032019059e-09 -7.730910121524428 5.474879855648998 -0.41731399283890674 -1.2848299889120633e-09 5.2108200175955585e-09 -1.322230032019059e-09 -2.90554006136521 0.9651829962377875 -0.10290200252939893 -1.2848299889120633e-09 5.2108200175955585e-09 -1.3222399712524386e-09 -10.278599710243157 0.7318009818271524 -0.025912300303053633 -1.2848299889120633e-09 5.210829956828938e-09 -1.3222399712524386e-09 -2.221669932038622 -0.7334870246959406 0.20891999872313852 -2.0321699793705798e-16 0.0 -3.882510030490358e-19 -16.806300292483552 -23.397299652857043 -18.871899761657147 -2.876040047453102 76.64619720534868 4.716260136045791 -0.23266799283810427 -0.06288469791466114 -25.110799455221894 2.0321699793705798e-16 0.0 3.882510030490358e-19 48.95750164980368 -54.47820012195242 55.83240123812334 2.646609937807554 73.1829975980179 -3.0145900078799874 5.944139891725085 -4.54046984982988 26.846200259160394
1.3587999706942355 60.21360158920288 22.54699986660853 -7.459299965216054 -26.1177008200233 10.292300215944556 1.2453900128336797 13.5138998106327 12.847399706139102 -1.026939965887456 -11.410299730238092 3.458650061013312 -3.2680500036861098 15.061400402956858 -0.3669760055840152 8.925510207359657 -35.25690032575597 2.145610012658418 -0.0 0.0 0.0 -0.0 0.0 0.0 -4.418439972718526e-14 -7.078210127853768e-14 -5.473979884559944e-13 -1.6647000217358168 49.19070138354084 87.56129712170346 -26.731999496237783 -44.7791983118455 92.90029890155151 -4.148320088162299 -48.60739981332717 -9.173849909165797 -6.007770013852531e-09 -1.1601700366264428e-09 -1.3594100204990309e-09 -1.0305199928302737e-08 -1.7688299036404359e-09 -2.567929954862078e-09 -6.007770013852531e-09 -1.1601900144855357e-09 -1.3594199597324105e-09 7.730910121524428 5.474879855648998 0.41731399283890674 -6.007770013852531e-09 -1.1601700366264428e-09 -1.3594100204990309e-09 2.90554006136521 0.9651829962377875 0.10290200252939893 -6.007760074619152e-09 -1.1601700366264428e-09 -1.3594100204990309e-09 10.278599710243157 0.7318009818271524 0.025912300303053633 -6.007770013852531e-09 -1.1601700366264428e-09 -1.3594100204990309e-09 2.221669932038622 -0.7334870246959406 -0.20891999872313852 -4.4209699759417624e-14 -7.07775999899832e-14 -5.477049981745451e-13 -58.106201948671846 33.328000262631015 -39.53840099188388 26.41460060550729 -24.546499471279198 -58.568298396969055 0.008846209716733933 2.7306199839382415 -0.38390198807967374 2.223859934837366e-09 -3.6564300680427584e-09 8.127620244635347e-10 3.843210129558379e-09 -6.2803900656661706e-09 1.4137100402983167e-09 2.223859934837366e-09 -3.6564499465095175e-09 8.127630183868727e-10 -7.730910121524428 5.474879855648998 -0.41731399283890674 2.223870072855413e-09 -3.656420128809379e-09 8.127609808440299e-10 -2.90554006136521 0.9651829962377875 -0.10290200252939893 2.223859934837366e-09 -3.656420128809379e-09 8.127560112273401e-10 -10.278599710243157 0.7318009818271524 -0.025912300303053633 2.223859934837366e-09 -3.656420128809379e-09 8.127540233806642e-10 -2.221669932038622 -0.7334870246959406 0.20891999872313852 -2.0321699793705798e-16 0.0 -3.882510030490358e-19 -15.727900507450457 -25.8636007074259 -15.51370065243698 -5.263730106986754 81.61459975102102 6.977270036712983 0.2336829963013652 0.9460910166820151 -20.86279915942561 2.0321699793705798e-16 0.0 3.882510030490358e-19 43.67740000626323 -54.57790039326709 51.83720161143485 2.584580080756202 72.91450286174471 -2.9664600126764347 5.957489923344698 -4.999820135193924 26.254700754395415
